<svg version="1.1" id="Layer_1" xmlns="http://www.w3.org/2000/svg" xmlns:xlink="http://www.w3.org/1999/xlink" x="0px" y="0px"
	 width="100%" viewBox="0 0 503 496" enable-background="new 0 0 503 496" xml:space="preserve">
<path fill="#EA6163" opacity="1.000000" stroke="none" 
	d="
M374.000000,497.000000 
	C300.645782,497.000000 227.291550,497.000000 153.354065,496.919434 
	C152.487595,496.742065 152.230652,496.795776 152.000000,497.000000 
	C151.250000,497.000000 150.500000,497.000000 149.257507,496.927246 
	C148.486710,496.758392 148.231705,496.806885 148.000000,497.000000 
	C143.310745,497.000000 138.621490,497.000000 133.462677,496.770325 
	C132.993134,496.540619 132.917084,496.087524 132.803345,495.799408 
	C131.455246,495.365784 130.220901,495.220276 128.597961,495.006287 
	C125.865219,494.566193 123.521072,494.194550 121.009636,493.560822 
	C119.229370,492.870636 117.616386,492.442535 115.689774,491.983246 
	C114.956734,491.926971 114.537315,491.901917 113.945000,491.606110 
	C112.810608,491.020813 111.849113,490.706329 110.499924,490.331604 
	C93.268051,485.302673 78.260162,476.873810 64.399208,466.211884 
	C62.546726,464.786957 60.182964,464.026703 58.030632,462.978943 
	C58.005302,462.999268 58.036369,462.942444 57.969013,462.611389 
	C52.228367,456.218231 46.062691,450.538269 40.993248,444.007385 
	C32.681667,433.299683 24.482052,422.567017 19.329124,409.641663 
	C13.689683,395.495941 8.130542,381.342407 8.073171,366.041107 
	C7.791617,290.949432 7.782785,215.855682 8.077254,140.764221 
	C8.111963,131.913406 10.014494,122.929588 12.121663,114.267845 
	C14.110997,106.090492 17.512033,98.256554 20.551239,90.053307 
	C22.182034,87.024567 23.230520,83.992432 24.980234,81.441231 
	C33.405193,69.157043 41.271641,56.428616 52.713333,46.493385 
	C54.389996,45.037483 55.047859,42.408298 56.295616,40.086021 
	C56.668461,39.609589 56.922798,39.369125 57.432884,39.116966 
	C57.846344,38.827126 58.004059,38.548977 58.355690,38.071781 
	C59.061802,37.707661 59.573994,37.542587 60.261986,37.533344 
	C60.975372,37.299187 61.512951,36.909199 62.315517,36.399342 
	C62.851185,36.004505 63.121864,35.729534 63.531139,35.491970 
	C63.669731,35.529377 63.956623,35.540470 64.267433,35.635498 
	C65.978249,35.300163 67.526207,35.121372 68.754478,34.398991 
	C77.328514,29.356352 85.509666,23.510736 94.457535,19.276678 
	C103.367538,15.060535 112.809799,11.387683 122.416550,9.388535 
	C132.091354,7.375225 142.253647,7.153055 152.205933,7.116384 
	C205.850342,6.918719 259.495880,6.994884 313.140961,7.058758 
	C319.786652,7.066671 326.432281,7.788916 333.077057,7.774835 
	C341.055939,7.757927 349.047699,6.889504 357.008606,7.153179 
	C366.126617,7.455179 375.561432,7.325663 384.235565,9.679541 
	C396.177856,12.920284 408.035645,17.345394 419.024902,23.016329 
	C434.716461,31.113871 448.908142,41.645012 460.054352,55.715290 
	C463.700562,60.318062 467.449158,64.844994 470.952881,69.553963 
	C474.412506,74.203606 478.050476,78.799835 480.865784,83.835663 
	C492.418793,104.500824 497.011780,126.908081 496.998260,150.441666 
	C496.957611,221.246414 497.037659,292.051270 496.941162,362.855896 
	C496.932831,368.980865 496.826233,375.329803 495.285675,381.185455 
	C491.096436,397.108826 485.193970,412.282715 476.716949,426.681549 
	C466.149689,444.630737 452.064636,459.017212 435.261627,470.460632 
	C420.494110,480.517792 404.765472,489.391602 386.513245,492.345001 
	C382.203918,493.042297 378.163910,495.403992 374.000000,497.000000 
M384.129669,330.671722 
	C384.860748,329.176453 385.510040,327.634308 386.335571,326.193146 
	C394.250214,312.376831 400.297150,297.755035 402.732574,282.028870 
	C407.061371,254.076416 406.168457,226.522522 396.422455,199.408493 
	C390.134094,181.913925 380.602234,166.498184 369.243988,152.236633 
	C360.880829,141.735779 350.887512,132.499741 339.594727,124.996628 
	C323.960266,114.608856 307.202972,107.020203 288.662384,102.936409 
	C264.953979,97.714340 241.417068,97.941231 217.818848,102.583908 
	C200.168762,106.056366 184.003372,113.381371 168.991058,123.179047 
	C147.150238,137.433289 129.952637,155.897919 117.708450,179.102524 
	C109.535965,194.590622 103.804176,210.777939 101.791161,228.099701 
	C100.796555,236.658157 101.205849,245.388977 101.129227,254.043137 
	C100.924698,277.144653 104.958862,299.080322 115.964005,319.904327 
	C122.713371,332.675507 130.279037,344.537964 139.984268,355.112183 
	C159.239227,376.091187 182.588837,390.468842 209.943771,398.354828 
	C233.750351,405.217896 257.766327,405.556580 282.109985,401.446411 
	C296.568970,399.005188 310.324005,394.367004 323.026093,387.597137 
	C333.924988,381.788391 344.032990,374.170502 353.603394,366.276825 
	C365.560730,356.414459 375.636047,344.614655 384.129669,330.671722 
z"/>
<path fill="#010000" opacity="1.000000" stroke="none" 
	d="
M60.086182,37.377510 
	C59.573994,37.542587 59.061802,37.707661 58.096184,38.071060 
	C57.487553,38.555813 57.332344,38.842239 57.177135,39.128662 
	C56.922798,39.369125 56.668461,39.609589 55.958366,40.118309 
	C53.014347,42.680290 50.526081,44.974007 47.837265,47.310905 
	C47.377247,47.507385 47.244694,47.734722 47.173279,48.057404 
	C47.107502,48.078705 47.046738,48.202919 46.823853,48.249748 
	C46.314789,48.465050 46.160294,48.714973 46.093658,49.047550 
	C46.049828,49.048752 46.046764,49.136387 45.824142,49.201485 
	C45.316956,49.443592 45.159657,49.698994 44.842484,50.192551 
	C43.680332,51.326561 42.805317,52.300823 41.784508,53.296314 
	C41.432178,53.426105 41.363434,53.591923 41.259758,54.124130 
	C40.359875,55.356422 39.632710,56.279572 38.723465,57.277405 
	C38.319698,57.524391 38.192688,57.750114 38.115456,58.024490 
	C38.070553,58.019730 38.050560,58.107796 37.820938,58.160202 
	C37.276684,58.404148 37.169525,58.677143 37.143204,59.302681 
	C36.686237,60.068199 36.355927,60.562622 35.772522,61.203102 
	C35.308876,61.885738 35.098320,62.422325 34.614784,63.146561 
	C29.563789,71.227989 24.785774,79.121765 19.719055,87.180359 
	C18.927513,88.552155 18.424677,89.759125 17.685625,91.137024 
	C17.296200,91.865868 17.142990,92.423790 16.730209,93.148239 
	C16.083109,94.243454 15.695581,95.172150 15.167871,96.417015 
	C14.685197,97.819359 14.342705,98.905540 13.791986,100.094299 
	C13.303546,100.409584 13.205843,100.686638 13.213665,101.278000 
	C13.100245,101.698463 13.063814,101.868980 12.739465,102.246506 
	C11.066254,106.999565 9.680962,111.545609 8.234405,116.395050 
	C8.103757,117.104958 8.034375,117.511452 7.726967,118.015259 
	C7.375574,118.416222 7.262206,118.719879 7.146355,119.467995 
	C6.476790,128.812469 5.267403,137.710281 5.231246,146.612854 
	C5.008101,201.557007 4.955627,256.502380 5.054057,311.447021 
	C5.087988,330.388123 5.541445,349.333984 6.173299,368.265320 
	C6.382118,374.521912 7.081725,380.920685 8.708013,386.943634 
	C15.405402,411.747528 27.652851,433.599518 45.333244,452.261169 
	C49.113808,456.251526 53.778820,459.403961 58.036377,462.942444 
	C58.036369,462.942444 58.005302,462.999268 58.137241,463.297180 
	C60.242054,465.368011 62.088268,467.311371 64.207970,468.886719 
	C80.284813,480.834961 97.644791,490.196960 117.250084,495.018860 
	C117.953270,495.191803 118.421997,496.318024 119.000000,497.000000 
	C79.676544,497.000000 40.353088,497.000000 1.022224,497.000000 
	C1.014816,331.718048 1.014816,166.436127 1.014816,1.077092 
	C168.573135,1.077092 336.146332,1.077092 503.859741,1.077092 
	C503.859741,166.333252 503.859741,331.666595 503.859741,497.000000 
	C465.248108,497.000000 426.591034,497.000000 387.099640,496.711670 
	C387.036957,495.909271 387.741516,495.143890 388.589905,494.917419 
	C421.876251,486.032867 449.252869,468.023682 470.185150,440.774048 
	C488.556122,416.858826 499.442535,389.893707 499.791382,359.312897 
	C499.998230,341.181732 499.940002,323.047211 499.940582,304.914185 
	C499.942139,257.588501 500.104980,210.261520 499.792206,162.937759 
	C499.674255,145.086334 500.233521,127.106773 494.918579,109.647095 
	C488.709015,89.248421 478.717194,70.893585 464.761566,54.918125 
	C450.311615,38.376797 432.865967,25.684004 412.722321,16.579426 
	C396.508484,9.251040 379.625885,4.856467 361.972168,4.398360 
	C332.356689,3.629849 302.721466,3.601631 273.093903,3.332380 
	C261.766541,3.229439 250.436768,3.242042 239.109222,3.337559 
	C206.493805,3.612583 173.876801,3.829006 141.265656,4.378702 
	C134.533249,4.492184 127.763351,5.622165 121.114922,6.848450 
	C103.607964,10.077559 88.121010,18.198866 72.862640,27.321030 
	C72.275116,27.430145 72.102196,27.683844 71.836029,28.200726 
	C71.072517,28.686609 70.574966,29.027060 69.851860,29.365444 
	C69.319550,29.508562 69.165756,29.750875 69.130180,30.085831 
	C69.095436,30.081341 69.077332,30.149019 68.825714,30.178637 
	C68.391747,30.478607 68.209396,30.748960 68.013367,31.009390 
	C67.999695,30.999466 68.020409,31.026102 67.691727,31.028397 
	C66.589973,31.698757 65.816910,32.366825 65.021820,33.017998 
	C64.999786,33.001095 65.032249,33.046326 64.705650,33.079132 
	C63.582310,33.803486 62.785572,34.495037 61.712845,35.313694 
	C60.986629,36.086372 60.536407,36.731941 60.086182,37.377510 
z"/>
<path fill="#BC5055" opacity="1.000000" stroke="none" 
	d="
M70.077423,29.367510 
	C70.574966,29.027060 71.072517,28.686609 72.045097,28.151344 
	C72.795822,27.831306 72.990616,27.628416 73.104515,27.347860 
	C88.121010,18.198866 103.607964,10.077559 121.114922,6.848450 
	C127.763351,5.622165 134.533249,4.492184 141.265656,4.378702 
	C173.876801,3.829006 206.493805,3.612583 239.109222,3.337559 
	C250.436768,3.242042 261.766541,3.229439 273.093903,3.332380 
	C302.721466,3.601631 332.356689,3.629849 361.972168,4.398360 
	C379.625885,4.856467 396.508484,9.251040 412.722321,16.579426 
	C432.865967,25.684004 450.311615,38.376797 464.761566,54.918125 
	C478.717194,70.893585 488.709015,89.248421 494.918579,109.647095 
	C500.233521,127.106773 499.674255,145.086334 499.792206,162.937759 
	C500.104980,210.261520 499.942139,257.588501 499.940582,304.914185 
	C499.940002,323.047211 499.998230,341.181732 499.791382,359.312897 
	C499.442535,389.893707 488.556122,416.858826 470.185150,440.774048 
	C449.252869,468.023682 421.876251,486.032867 388.589905,494.917419 
	C387.741516,495.143890 387.036957,495.909271 386.632660,496.711670 
	C382.975464,497.000000 378.950897,497.000000 374.463196,497.000000 
	C378.163910,495.403992 382.203918,493.042297 386.513245,492.345001 
	C404.765472,489.391602 420.494110,480.517792 435.261627,470.460632 
	C452.064636,459.017212 466.149689,444.630737 476.716949,426.681549 
	C485.193970,412.282715 491.096436,397.108826 495.285675,381.185455 
	C496.826233,375.329803 496.932831,368.980865 496.941162,362.855896 
	C497.037659,292.051270 496.957611,221.246414 496.998260,150.441666 
	C497.011780,126.908081 492.418793,104.500824 480.865784,83.835663 
	C478.050476,78.799835 474.412506,74.203606 470.952881,69.553963 
	C467.449158,64.844994 463.700562,60.318062 460.054352,55.715290 
	C448.908142,41.645012 434.716461,31.113871 419.024902,23.016329 
	C408.035645,17.345394 396.177856,12.920284 384.235565,9.679541 
	C375.561432,7.325663 366.126617,7.455179 357.008606,7.153179 
	C349.047699,6.889504 341.055939,7.757927 333.077057,7.774835 
	C326.432281,7.788916 319.786652,7.066671 313.140961,7.058758 
	C259.495880,6.994884 205.850342,6.918719 152.205933,7.116384 
	C142.253647,7.153055 132.091354,7.375225 122.416550,9.388535 
	C112.809799,11.387683 103.367538,15.060535 94.457535,19.276678 
	C85.509666,23.510736 77.328514,29.356352 68.754478,34.398991 
	C67.526207,35.121372 65.978249,35.300163 64.434792,35.335014 
	C64.538315,34.308441 64.785278,33.677383 65.032242,33.046326 
	C65.032249,33.046326 64.999786,33.001095 65.353111,33.012177 
	C66.477760,32.357544 67.249084,31.691822 68.020409,31.026102 
	C68.020409,31.026102 67.999695,30.999466 68.238358,30.932028 
	C68.767731,30.702080 68.967834,30.463556 69.077332,30.149019 
	C69.077332,30.149019 69.095436,30.081341 69.329651,30.035252 
	C69.822052,29.853817 69.993240,29.646601 70.077423,29.367510 
z"/>
<path fill="#A04649" opacity="1.000000" stroke="none" 
	d="
M119.454102,497.000000 
	C118.421997,496.318024 117.953270,495.191803 117.250084,495.018860 
	C97.644791,490.196960 80.284813,480.834961 64.207970,468.886719 
	C62.088268,467.311371 60.242054,465.368011 58.162575,463.276855 
	C60.182964,464.026703 62.546726,464.786957 64.399208,466.211884 
	C78.260162,476.873810 93.268051,485.302673 110.678497,490.578094 
	C112.202477,491.215454 113.160187,491.546173 114.117897,491.876892 
	C114.537315,491.901917 114.956734,491.926971 115.964279,492.185486 
	C118.093910,492.886932 119.635414,493.354919 121.176918,493.822906 
	C123.521072,494.194550 125.865219,494.566193 128.599243,495.326599 
	C128.992752,496.143585 128.996368,496.571777 129.000000,497.000000 
	C125.969406,497.000000 122.938812,497.000000 119.454102,497.000000 
z"/>
<path fill="#BC5055" opacity="1.000000" stroke="none" 
	d="
M129.375000,497.000000 
	C128.996368,496.571777 128.992752,496.143585 128.987854,495.395081 
	C130.220901,495.220276 131.455246,495.365784 132.643784,495.942993 
	C132.385757,496.570831 132.186432,496.779266 132.000000,497.000000 
	C131.250000,497.000000 130.500000,497.000000 129.375000,497.000000 
z"/>
<path fill="#BC5055" opacity="1.000000" stroke="none" 
	d="
M152.250000,497.000000 
	C152.230652,496.795776 152.487595,496.742065 152.885406,496.919434 
	C153.000000,497.000000 152.500000,497.000000 152.250000,497.000000 
z"/>
<path fill="#BC5055" opacity="1.000000" stroke="none" 
	d="
M148.250000,497.000000 
	C148.231705,496.806885 148.486710,496.758392 148.882507,496.927246 
	C149.000000,497.000000 148.500000,497.000000 148.250000,497.000000 
z"/>
<path fill="#A04649" opacity="1.000000" stroke="none" 
	d="
M132.250000,497.000000 
	C132.186432,496.779266 132.385757,496.570831 132.757538,496.231140 
	C132.917084,496.087524 132.993134,496.540619 132.996567,496.770325 
	C133.000000,497.000000 132.500000,497.000000 132.250000,497.000000 
z"/>
<path fill="#954446" opacity="1.000000" stroke="none" 
	d="
M383.989075,331.012695 
	C375.636047,344.614655 365.560730,356.414459 353.603394,366.276825 
	C344.032990,374.170502 333.924988,381.788391 323.026093,387.597137 
	C310.324005,394.367004 296.568970,399.005188 282.109985,401.446411 
	C257.766327,405.556580 233.750351,405.217896 209.943771,398.354828 
	C182.588837,390.468842 159.239227,376.091187 139.984268,355.112183 
	C130.279037,344.537964 122.713371,332.675507 115.964005,319.904327 
	C104.958862,299.080322 100.924698,277.144653 101.129227,254.043137 
	C101.205849,245.388977 100.796555,236.658157 101.791161,228.099701 
	C103.804176,210.777939 109.535965,194.590622 117.708450,179.102524 
	C129.952637,155.897919 147.150238,137.433289 168.991058,123.179047 
	C184.003372,113.381371 200.168762,106.056366 217.818848,102.583908 
	C241.417068,97.941231 264.953979,97.714340 288.662384,102.936409 
	C307.202972,107.020203 323.960266,114.608856 339.594727,124.996628 
	C350.887512,132.499741 360.880829,141.735779 369.243988,152.236633 
	C380.602234,166.498184 390.134094,181.913925 396.422455,199.408493 
	C406.168457,226.522522 407.061371,254.076416 402.732574,282.028870 
	C400.297150,297.755035 394.250214,312.376831 386.335571,326.193146 
	C385.510040,327.634308 384.860748,329.176453 383.989075,331.012695 
M153.981674,137.424286 
	C146.477875,145.607544 138.465698,153.389328 131.603073,162.078949 
	C123.604637,172.206787 117.465416,183.549561 112.717354,195.675873 
	C107.763405,208.328033 105.395668,221.296875 104.524773,234.838440 
	C103.411018,252.156097 102.775948,269.556885 106.801979,286.355560 
	C114.894768,320.122864 133.062958,347.598511 160.393982,369.512054 
	C188.012054,391.655762 219.488144,401.900665 254.173813,401.669830 
	C273.634216,401.540314 292.950897,397.924103 311.128204,389.745667 
	C328.373505,381.986542 343.857422,371.874878 357.512146,358.776123 
	C371.690521,345.175018 382.297913,329.295410 390.348969,311.406799 
	C396.399994,297.962128 400.739624,284.214783 401.319794,269.471497 
	C401.651733,261.035767 401.161774,252.570648 401.355316,244.125946 
	C401.918549,219.551498 394.884766,196.815659 383.023071,175.832733 
	C371.667419,155.744919 356.429138,138.664871 336.808655,125.914871 
	C318.816040,114.222694 299.363647,106.751991 278.016479,103.626320 
	C258.733795,100.802940 239.520523,100.690460 220.561874,104.420906 
	C195.785172,109.296158 173.831192,120.642937 153.981674,137.424286 
z"/>
<path fill="#A04649" opacity="1.000000" stroke="none" 
	d="
M57.969017,462.611389 
	C53.778820,459.403961 49.113808,456.251526 45.333244,452.261169 
	C27.652851,433.599518 15.405402,411.747528 8.708013,386.943634 
	C7.081725,380.920685 6.382118,374.521912 6.173299,368.265320 
	C5.541445,349.333984 5.087988,330.388123 5.054057,311.447021 
	C4.955627,256.502380 5.008101,201.557007 5.231246,146.612854 
	C5.267403,137.710281 6.476790,128.812469 7.306604,119.301636 
	C7.687781,118.467331 7.853000,118.209709 7.964993,117.917953 
	C8.034375,117.511452 8.103757,117.104958 8.524433,116.217529 
	C10.259612,111.170906 11.643497,106.605194 13.027384,102.039490 
	C13.063814,101.868980 13.100245,101.698463 13.375668,101.137878 
	C13.814288,100.532043 13.942806,100.280014 14.000213,99.991722 
	C14.342705,98.905540 14.685197,97.819359 15.438677,96.260323 
	C16.229702,94.852219 16.609741,93.916969 16.989780,92.981720 
	C17.142990,92.423790 17.296200,91.865868 17.940548,91.029251 
	C18.901295,90.462090 19.370903,90.173607 19.953606,89.981506 
	C20.066700,90.077881 20.292099,90.271561 20.292099,90.271561 
	C17.512033,98.256554 14.110997,106.090492 12.121663,114.267845 
	C10.014494,122.929588 8.111963,131.913406 8.077254,140.764221 
	C7.782785,215.855682 7.791617,290.949432 8.073171,366.041107 
	C8.130542,381.342407 13.689683,395.495941 19.329124,409.641663 
	C24.482052,422.567017 32.681667,433.299683 40.993248,444.007385 
	C46.062691,450.538269 52.228367,456.218231 57.969017,462.611389 
z"/>
<path fill="#A04649" opacity="1.000000" stroke="none" 
	d="
M38.905544,57.202721 
	C39.632710,56.279572 40.359875,55.356422 41.381424,54.079533 
	C41.824875,53.611912 41.909702,53.461678 41.930302,53.275085 
	C42.805317,52.300823 43.680332,51.326561 45.031189,50.083359 
	C45.743362,49.633320 45.923271,49.407310 46.046764,49.136387 
	C46.046764,49.136387 46.049828,49.048752 46.280212,48.947990 
	C46.747585,48.680950 46.926300,48.466183 47.046738,48.202919 
	C47.046738,48.202919 47.107502,48.078705 47.345757,47.976067 
	C47.800991,47.720772 47.952255,47.518871 48.037811,47.267719 
	C50.526081,44.974007 53.014347,42.680290 55.839867,40.354282 
	C55.047859,42.408298 54.389996,45.037483 52.713333,46.493385 
	C41.271641,56.428616 33.405193,69.157043 24.980234,81.441231 
	C23.230520,83.992432 22.182034,87.024567 20.551237,90.053307 
	C20.292099,90.271561 20.066700,90.077881 19.991032,89.625381 
	C19.946161,88.453766 19.976961,87.734650 20.007759,87.015541 
	C24.785774,79.121765 29.563789,71.227989 34.827988,62.958393 
	C35.551319,62.074066 35.788467,61.565556 36.025616,61.057049 
	C36.355927,60.562622 36.686237,60.068199 37.309647,59.182053 
	C37.809273,58.600391 37.958546,58.372879 38.050560,58.107796 
	C38.050560,58.107796 38.070553,58.019730 38.277042,57.922188 
	C38.682541,57.656910 38.823212,57.449600 38.905544,57.202721 
z"/>
<path fill="#BC5055" opacity="1.000000" stroke="none" 
	d="
M121.009636,493.560822 
	C119.635414,493.354919 118.093910,492.886932 116.277901,492.216736 
	C117.616386,492.442535 119.229370,492.870636 121.009636,493.560822 
z"/>
<path fill="#BC5055" opacity="1.000000" stroke="none" 
	d="
M113.945000,491.606110 
	C113.160187,491.546173 112.202477,491.215454 111.066193,490.638306 
	C111.849113,490.706329 112.810608,491.020813 113.945000,491.606110 
z"/>
<path fill="#783A3E" opacity="1.000000" stroke="none" 
	d="
M64.705643,33.079132 
	C64.785278,33.677383 64.538315,34.308441 64.123985,35.239983 
	C63.956623,35.540470 63.669731,35.529377 63.144440,35.541206 
	C62.374443,35.636997 62.129745,35.720959 61.871361,35.643684 
	C61.857677,35.482449 61.988834,35.186588 61.988834,35.186588 
	C62.785572,34.495037 63.582310,33.803486 64.705643,33.079132 
z"/>
<path fill="#BC5055" opacity="1.000000" stroke="none" 
	d="
M60.261986,37.533340 
	C60.536407,36.731941 60.986629,36.086372 61.712845,35.313694 
	C61.988834,35.186588 61.857677,35.482449 61.908371,35.820213 
	C61.959068,36.157974 62.050529,36.519207 62.050529,36.519207 
	C61.512951,36.909199 60.975372,37.299187 60.261986,37.533340 
z"/>
<path fill="#783A3E" opacity="1.000000" stroke="none" 
	d="
M57.432884,39.116966 
	C57.332344,38.842239 57.487553,38.555813 57.902267,38.270107 
	C58.004059,38.548977 57.846344,38.827126 57.432884,39.116966 
z"/>
<path fill="#A04649" opacity="1.000000" stroke="none" 
	d="
M62.315517,36.399342 
	C62.050529,36.519207 61.959068,36.157974 61.922058,35.981445 
	C62.129745,35.720959 62.374443,35.636997 63.005844,35.503799 
	C63.121864,35.729534 62.851185,36.004505 62.315517,36.399342 
z"/>
<path fill="#783A3E" opacity="1.000000" stroke="none" 
	d="
M12.739464,102.246506 
	C11.643497,106.605194 10.259612,111.170906 8.585698,115.914131 
	C9.680962,111.545609 11.066254,106.999565 12.739464,102.246506 
z"/>
<path fill="#783A3E" opacity="1.000000" stroke="none" 
	d="
M19.719055,87.180359 
	C19.976961,87.734650 19.946161,88.453766 19.877937,89.529007 
	C19.370903,90.173607 18.901295,90.462090 18.176764,90.858337 
	C18.424677,89.759125 18.927513,88.552155 19.719055,87.180359 
z"/>
<path fill="#783A3E" opacity="1.000000" stroke="none" 
	d="
M67.691727,31.028397 
	C67.249084,31.691822 66.477760,32.357544 65.375137,33.029079 
	C65.816910,32.366825 66.589973,31.698757 67.691727,31.028397 
z"/>
<path fill="#783A3E" opacity="1.000000" stroke="none" 
	d="
M16.730209,93.148239 
	C16.609741,93.916969 16.229702,94.852219 15.578857,95.944160 
	C15.695581,95.172150 16.083109,94.243454 16.730209,93.148239 
z"/>
<path fill="#783A3E" opacity="1.000000" stroke="none" 
	d="
M35.772522,61.203102 
	C35.788467,61.565556 35.551319,62.074066 35.100967,62.770744 
	C35.098320,62.422325 35.308876,61.885738 35.772522,61.203102 
z"/>
<path fill="#783A3E" opacity="1.000000" stroke="none" 
	d="
M72.862640,27.321030 
	C72.990616,27.628416 72.795822,27.831306 72.311066,28.005911 
	C72.102196,27.683844 72.275116,27.430145 72.862640,27.321030 
z"/>
<path fill="#783A3E" opacity="1.000000" stroke="none" 
	d="
M69.851860,29.365444 
	C69.993240,29.646601 69.822052,29.853817 69.364395,30.039742 
	C69.165756,29.750875 69.319550,29.508562 69.851860,29.365444 
z"/>
<path fill="#783A3E" opacity="1.000000" stroke="none" 
	d="
M68.825714,30.178637 
	C68.967834,30.463556 68.767731,30.702080 68.252029,30.941952 
	C68.209396,30.748960 68.391747,30.478607 68.825714,30.178637 
z"/>
<path fill="#783A3E" opacity="1.000000" stroke="none" 
	d="
M47.837265,47.310905 
	C47.952255,47.518871 47.800991,47.720772 47.411537,47.954765 
	C47.244694,47.734722 47.377247,47.507385 47.837265,47.310905 
z"/>
<path fill="#783A3E" opacity="1.000000" stroke="none" 
	d="
M7.726967,118.015259 
	C7.853000,118.209709 7.687781,118.467331 7.309087,118.857178 
	C7.262206,118.719879 7.375574,118.416222 7.726967,118.015259 
z"/>
<path fill="#783A3E" opacity="1.000000" stroke="none" 
	d="
M46.823853,48.249748 
	C46.926300,48.466183 46.747585,48.680950 46.324039,48.946789 
	C46.160294,48.714973 46.314789,48.465050 46.823853,48.249748 
z"/>
<path fill="#783A3E" opacity="1.000000" stroke="none" 
	d="
M45.824142,49.201485 
	C45.923271,49.407310 45.743362,49.633320 45.318333,49.923607 
	C45.159657,49.698994 45.316956,49.443592 45.824142,49.201485 
z"/>
<path fill="#783A3E" opacity="1.000000" stroke="none" 
	d="
M13.791986,100.094299 
	C13.942806,100.280014 13.814288,100.532043 13.452654,100.887932 
	C13.205843,100.686638 13.303546,100.409584 13.791986,100.094299 
z"/>
<path fill="#783A3E" opacity="1.000000" stroke="none" 
	d="
M41.784508,53.296314 
	C41.909702,53.461678 41.824875,53.611912 41.554146,53.770390 
	C41.363434,53.591923 41.432178,53.426105 41.784508,53.296314 
z"/>
<path fill="#783A3E" opacity="1.000000" stroke="none" 
	d="
M38.723465,57.277405 
	C38.823212,57.449600 38.682541,57.656910 38.321945,57.926952 
	C38.192688,57.750114 38.319698,57.524391 38.723465,57.277405 
z"/>
<path fill="#783A3E" opacity="1.000000" stroke="none" 
	d="
M37.820938,58.160202 
	C37.958546,58.372879 37.809273,58.600391 37.436295,58.910957 
	C37.169525,58.677143 37.276684,58.404148 37.820938,58.160202 
z"/>
<path fill="#010000" opacity="1.000000" stroke="none" 
	d="
M154.229187,137.169998 
	C173.831192,120.642937 195.785172,109.296158 220.561874,104.420906 
	C239.520523,100.690460 258.733795,100.802940 278.016479,103.626320 
	C299.363647,106.751991 318.816040,114.222694 336.808655,125.914871 
	C356.429138,138.664871 371.667419,155.744919 383.023071,175.832733 
	C394.884766,196.815659 401.918549,219.551498 401.355316,244.125946 
	C401.161774,252.570648 401.651733,261.035767 401.319794,269.471497 
	C400.739624,284.214783 396.399994,297.962128 390.348969,311.406799 
	C382.297913,329.295410 371.690521,345.175018 357.512146,358.776123 
	C343.857422,371.874878 328.373505,381.986542 311.128204,389.745667 
	C292.950897,397.924103 273.634216,401.540314 254.173813,401.669830 
	C219.488144,401.900665 188.012054,391.655762 160.393982,369.512054 
	C133.062958,347.598511 114.894768,320.122864 106.801979,286.355560 
	C102.775948,269.556885 103.411018,252.156097 104.524773,234.838440 
	C105.395668,221.296875 107.763405,208.328033 112.717354,195.675873 
	C117.465416,183.549561 123.604637,172.206787 131.603073,162.078949 
	C138.465698,153.389328 146.477875,145.607544 154.229187,137.169998 
M352.618927,272.345490 
	C352.983948,267.882629 353.422791,263.424316 353.695282,258.955811 
	C354.033600,253.408524 353.112640,252.076523 347.739441,252.466385 
	C338.667267,253.124619 329.521423,253.761719 320.611328,255.473465 
	C293.968353,260.591980 276.338043,276.607147 267.131134,301.874847 
	C260.859985,319.085602 273.698120,338.886719 293.232697,339.968933 
	C312.307739,341.025726 335.427795,321.129883 342.772095,305.856293 
	C347.745514,295.513275 350.989349,284.609985 352.618927,272.345490 
M230.803238,174.219360 
	C228.192291,179.363815 225.299866,184.386856 223.019669,189.673935 
	C213.697388,211.289490 218.581985,231.642731 229.967896,250.706161 
	C236.569305,261.758911 256.127411,267.212860 268.718445,257.698456 
	C278.320129,250.442993 282.470123,239.994507 285.442505,229.225998 
	C290.662811,210.313843 285.163391,192.824387 275.515930,176.656616 
	C270.892975,168.909149 264.676727,162.107300 259.127441,154.919357 
	C254.718399,149.208344 251.979218,148.715561 247.141556,153.989578 
	C241.454056,160.190094 236.462814,167.029266 230.803238,174.219360 
M166.113632,312.381775 
	C171.648926,317.834808 176.891724,323.630280 182.785019,328.664185 
	C192.738464,337.166107 204.006592,341.935211 217.582825,339.380859 
	C229.486084,337.141296 239.244125,325.660309 239.978241,313.589661 
	C240.575012,303.776978 237.368240,295.213043 232.360291,287.386719 
	C215.116364,260.438293 188.562500,252.265717 158.472076,251.899796 
	C153.208038,251.835770 151.326401,253.978836 151.517792,259.439270 
	C151.713852,265.033447 152.553085,270.614014 153.277176,276.178894 
	C154.933304,288.906769 158.599518,300.955902 166.113632,312.381775 
z"/>
<path fill="#E05E60" opacity="1.000000" stroke="none" 
	d="
M352.596405,272.786987 
	C350.989349,284.609985 347.745514,295.513275 342.772095,305.856293 
	C335.427795,321.129883 312.307739,341.025726 293.232697,339.968933 
	C273.698120,338.886719 260.859985,319.085602 267.131134,301.874847 
	C276.338043,276.607147 293.968353,260.591980 320.611328,255.473465 
	C329.521423,253.761719 338.667267,253.124619 347.739441,252.466385 
	C353.112640,252.076523 354.033600,253.408524 353.695282,258.955811 
	C353.422791,263.424316 352.983948,267.882629 352.596405,272.786987 
z"/>
<path fill="#A74A4E" opacity="1.000000" stroke="none" 
	d="
M230.986450,173.905426 
	C236.462814,167.029266 241.454056,160.190094 247.141556,153.989578 
	C251.979218,148.715561 254.718399,149.208344 259.127441,154.919357 
	C264.676727,162.107300 270.892975,168.909149 275.515930,176.656616 
	C285.163391,192.824387 290.662811,210.313843 285.442505,229.225998 
	C282.470123,239.994507 278.320129,250.442993 268.718445,257.698456 
	C256.127411,267.212860 236.569305,261.758911 229.967896,250.706161 
	C218.581985,231.642731 213.697388,211.289490 223.019669,189.673935 
	C225.299866,184.386856 228.192291,179.363815 230.986450,173.905426 
M249.359131,258.369049 
	C251.995422,258.517365 254.673843,259.039093 257.260468,258.747284 
	C266.858307,257.664490 272.285522,251.463455 276.454651,243.284393 
	C284.052856,228.378098 285.841888,212.953003 281.071350,197.000748 
	C276.620392,182.117279 268.289062,169.395279 257.752838,158.065918 
	C253.392059,153.376862 251.784454,152.878113 247.771866,157.824295 
	C240.904846,166.288986 232.919067,174.066895 229.141006,184.721085 
	C226.927933,190.961990 223.472305,196.978577 222.478149,203.391037 
	C220.317444,217.328018 223.044632,230.687271 229.280441,243.518936 
	C233.374222,251.942825 239.448700,256.809784 249.359131,258.369049 
z"/>
<path fill="#B45153" opacity="1.000000" stroke="none" 
	d="
M165.897125,312.093506 
	C158.599518,300.955902 154.933304,288.906769 153.277176,276.178894 
	C152.553085,270.614014 151.713852,265.033447 151.517792,259.439270 
	C151.326401,253.978836 153.208038,251.835770 158.472076,251.899796 
	C188.562500,252.265717 215.116364,260.438293 232.360291,287.386719 
	C237.368240,295.213043 240.575012,303.776978 239.978241,313.589661 
	C239.244125,325.660309 229.486084,337.141296 217.582825,339.380859 
	C204.006592,341.935211 192.738464,337.166107 182.785019,328.664185 
	C176.891724,323.630280 171.648926,317.834808 165.897125,312.093506 
M235.845993,304.007812 
	C232.847824,297.578613 230.215057,290.939728 226.696320,284.809326 
	C224.954178,281.774078 221.130234,279.999847 219.032944,277.089539 
	C213.506622,269.420990 205.431168,264.989288 197.237823,261.967407 
	C186.109726,257.863129 174.389801,254.941650 162.140976,255.773987 
	C155.448532,256.228790 154.399521,256.524078 155.052063,263.385834 
	C155.802063,271.272461 156.952545,279.223419 159.010712,286.854706 
	C161.108444,294.632629 163.172195,302.994385 167.651077,309.430084 
	C175.775833,321.104553 186.991653,329.972839 200.337509,335.472473 
	C214.476120,341.298828 229.815048,334.329895 234.590637,319.674713 
	C236.092972,315.064423 235.571365,309.794586 235.845993,304.007812 
z"/>
<path fill="#EB6164" opacity="1.000000" stroke="none" 
	d="
M248.938385,258.314392 
	C239.448700,256.809784 233.374222,251.942825 229.280441,243.518936 
	C223.044632,230.687271 220.317444,217.328018 222.478149,203.391037 
	C223.472305,196.978577 226.927933,190.961990 229.141006,184.721085 
	C232.919067,174.066895 240.904846,166.288986 247.771866,157.824295 
	C251.784454,152.878113 253.392059,153.376862 257.752838,158.065918 
	C268.289062,169.395279 276.620392,182.117279 281.071350,197.000748 
	C285.841888,212.953003 284.052856,228.378098 276.454651,243.284393 
	C272.285522,251.463455 266.858307,257.664490 257.260468,258.747284 
	C254.673843,259.039093 251.995422,258.517365 248.938385,258.314392 
z"/>
<path fill="#EB6164" opacity="1.000000" stroke="none" 
	d="
M235.911057,304.417236 
	C235.571365,309.794586 236.092972,315.064423 234.590637,319.674713 
	C229.815048,334.329895 214.476120,341.298828 200.337509,335.472473 
	C186.991653,329.972839 175.775833,321.104553 167.651077,309.430084 
	C163.172195,302.994385 161.108444,294.632629 159.010712,286.854706 
	C156.952545,279.223419 155.802063,271.272461 155.052063,263.385834 
	C154.399521,256.524078 155.448532,256.228790 162.140976,255.773987 
	C174.389801,254.941650 186.109726,257.863129 197.237823,261.967407 
	C205.431168,264.989288 213.506622,269.420990 219.032944,277.089539 
	C221.130234,279.999847 224.954178,281.774078 226.696320,284.809326 
	C230.215057,290.939728 232.847824,297.578613 235.911057,304.417236 
z"/>
</svg>