<svg version="1.1" id="Layer_1" xmlns="http://www.w3.org/2000/svg" xmlns:xlink="http://www.w3.org/1999/xlink" x="0px" y="0px"
	 width="100%" viewBox="0 0 471 311" enable-background="new 0 0 471 311" xml:space="preserve">
<path fill="#000000" opacity="1.000000" stroke="none" 
	d="
M262.000000,312.000000 
	C174.666687,312.000000 87.833382,312.000000 1.000058,312.000000 
	C1.000039,208.333389 1.000039,104.666779 1.000019,1.000128 
	C157.999893,1.000085 314.999786,1.000085 471.999756,1.000043 
	C471.999847,104.666534 471.999847,208.333069 471.999939,311.999817 
	C402.166656,312.000000 332.333344,312.000000 262.000000,312.000000 
M258.500122,285.847137 
	C267.096375,285.529419 275.693024,284.948517 284.288788,284.961731 
	C294.616272,284.977631 303.888275,281.903015 312.583954,276.618408 
	C333.222565,264.075714 344.252899,245.647537 344.734833,221.605148 
	C345.269012,194.956131 345.023163,168.287186 344.790924,141.629745 
	C344.722290,133.753876 344.244843,125.753609 342.758087,118.041031 
	C337.364380,90.061058 308.742615,67.440758 280.307587,67.947647 
	C249.991531,68.488052 219.657288,68.208260 189.333115,67.990204 
	C177.752518,67.906937 167.433670,71.558136 158.062607,77.712074 
	C137.157333,91.440453 126.590012,110.706047 126.973282,136.123810 
	C127.410362,165.109955 126.869614,194.110245 127.222534,223.098679 
	C127.302879,229.698914 128.361633,236.620438 130.611130,242.796356 
	C136.517929,259.013245 147.976593,270.684875 163.030930,278.946075 
	C174.093292,285.016602 186.364166,285.341797 198.385834,285.696167 
	C218.074951,286.276550 237.793762,285.849365 258.500122,285.847137 
z"/>
<path fill="#E96164" opacity="1.000000" stroke="none" 
	d="
M258.000092,285.847137 
	C237.793762,285.849365 218.074951,286.276550 198.385834,285.696167 
	C186.364166,285.341797 174.093292,285.016602 163.030930,278.946075 
	C147.976593,270.684875 136.517929,259.013245 130.611130,242.796356 
	C128.361633,236.620438 127.302879,229.698914 127.222534,223.098679 
	C126.869614,194.110245 127.410362,165.109955 126.973282,136.123810 
	C126.590012,110.706047 137.157333,91.440453 158.062607,77.712074 
	C167.433670,71.558136 177.752518,67.906937 189.333115,67.990204 
	C219.657288,68.208260 249.991531,68.488052 280.307587,67.947647 
	C308.742615,67.440758 337.364380,90.061058 342.758087,118.041031 
	C344.244843,125.753609 344.722290,133.753876 344.790924,141.629745 
	C345.023163,168.287186 345.269012,194.956131 344.734833,221.605148 
	C344.252899,245.647537 333.222565,264.075714 312.583954,276.618408 
	C303.888275,281.903015 294.616272,284.977631 284.288788,284.961731 
	C275.693024,284.948517 267.096375,285.529419 258.000092,285.847137 
M298.096344,195.313187 
	C298.748169,188.644501 299.970093,181.973892 299.947693,175.307480 
	C299.872711,153.004730 290.109314,135.424973 271.874786,123.022072 
	C258.676697,114.044891 243.919189,110.601189 227.665207,112.795181 
	C209.729172,115.216202 195.767700,123.512169 184.619705,137.515335 
	C174.917557,149.702393 171.576416,163.453094 171.804810,178.792419 
	C172.131790,200.751785 181.521210,217.520630 199.061386,230.071335 
	C214.911667,241.412811 232.876038,243.608994 251.260651,239.713654 
	C264.530457,236.902039 275.711212,229.537903 284.943451,219.062653 
	C291.000977,212.189590 294.286346,204.128479 298.096344,195.313187 
z"/>
<path fill="#000000" opacity="1.000000" stroke="none" 
	d="
M298.056091,195.725174 
	C294.286346,204.128479 291.000977,212.189590 284.943451,219.062653 
	C275.711212,229.537903 264.530457,236.902039 251.260651,239.713654 
	C232.876038,243.608994 214.911667,241.412811 199.061386,230.071335 
	C181.521210,217.520630 172.131790,200.751785 171.804810,178.792419 
	C171.576416,163.453094 174.917557,149.702393 184.619705,137.515335 
	C195.767700,123.512169 209.729172,115.216202 227.665207,112.795181 
	C243.919189,110.601189 258.676697,114.044891 271.874786,123.022072 
	C290.109314,135.424973 299.872711,153.004730 299.947693,175.307480 
	C299.970093,181.973892 298.748169,188.644501 298.056091,195.725174 
M220.082504,158.754257 
	C221.106400,163.841202 221.669449,169.079147 223.274048,173.975800 
	C225.163315,179.741165 232.899506,183.653748 238.130905,182.254776 
	C246.228592,180.089294 253.038483,169.312180 251.883881,160.032867 
	C250.656754,150.170502 246.435242,141.671814 239.718307,134.314301 
	C237.047211,131.388458 234.890503,131.420502 232.311386,134.252640 
	C226.123505,141.047562 221.721680,148.735352 220.082504,158.754257 
M211.405273,178.921066 
	C205.977417,177.964813 200.560120,176.941879 195.117416,176.079285 
	C192.214371,175.619186 190.687729,176.865646 191.013641,179.996536 
	C191.401291,183.720352 191.392944,187.514725 192.111435,191.169357 
	C194.421982,202.921951 201.277008,211.090546 212.401840,215.522995 
	C214.288116,216.274567 216.573212,216.864197 218.503296,216.533112 
	C233.019974,214.043030 233.646576,201.882324 228.316803,193.105331 
	C224.502563,186.824097 219.151596,181.934570 211.405273,178.921066 
M246.569519,214.051498 
	C251.089417,217.458466 255.859253,216.925415 260.722412,214.952408 
	C274.292725,209.446899 280.385986,195.578262 280.956635,180.416306 
	C281.079681,177.146408 280.003815,175.909424 276.734100,176.038681 
	C264.765167,176.511780 253.885422,179.369431 246.169708,189.456741 
	C238.920639,198.933990 237.855133,206.955551 246.569519,214.051498 
z"/>
<path fill="#E36063" opacity="1.000000" stroke="none" 
	d="
M220.091309,158.315125 
	C221.721680,148.735352 226.123505,141.047562 232.311386,134.252640 
	C234.890503,131.420502 237.047211,131.388458 239.718307,134.314301 
	C246.435242,141.671814 250.656754,150.170502 251.883881,160.032867 
	C253.038483,169.312180 246.228592,180.089294 238.130905,182.254776 
	C232.899506,183.653748 225.163315,179.741165 223.274048,173.975800 
	C221.669449,169.079147 221.106400,163.841202 220.091309,158.315125 
z"/>
<path fill="#E36063" opacity="1.000000" stroke="none" 
	d="
M211.788116,179.019775 
	C219.151596,181.934570 224.502563,186.824097 228.316803,193.105331 
	C233.646576,201.882324 233.019974,214.043030 218.503296,216.533112 
	C216.573212,216.864197 214.288116,216.274567 212.401840,215.522995 
	C201.277008,211.090546 194.421982,202.921951 192.111435,191.169357 
	C191.392944,187.514725 191.401291,183.720352 191.013641,179.996536 
	C190.687729,176.865646 192.214371,175.619186 195.117416,176.079285 
	C200.560120,176.941879 205.977417,177.964813 211.788116,179.019775 
z"/>
<path fill="#E36064" opacity="1.000000" stroke="none" 
	d="
M246.202301,213.938309 
	C237.855133,206.955551 238.920639,198.933990 246.169708,189.456741 
	C253.885422,179.369431 264.765167,176.511780 276.734100,176.038681 
	C280.003815,175.909424 281.079681,177.146408 280.956635,180.416306 
	C280.385986,195.578262 274.292725,209.446899 260.722412,214.952408 
	C255.859253,216.925415 251.089417,217.458466 246.202301,213.938309 
z"/>
</svg>